<?xml version="1.0" encoding="utf-8"?>
<!-- Generator: Adobe Illustrator 23.0.0, SVG Export Plug-In . SVG Version: 6.00 Build 0)  -->
<svg version="1.1" id="Capa_1" xmlns="http://www.w3.org/2000/svg" xmlns:xlink="http://www.w3.org/1999/xlink" x="0px" y="0px"
	 viewBox="0 0 600 600" style="enable-background:new 0 0 600 600;" xml:space="preserve">
<style type="text/css">
	.st0{fill:#104B70;}
	.st1{fill:url(#SVGID_1_);}
	.st2{fill:#F5A214;}
	.st3{fill:url(#SVGID_2_);}
	.st4{fill:#333333;}
</style>
<g>
	<g>
		<polygon class="st0" points="217.3,318.7 95.3,318.8 95.3,178.7 57.5,178.7 57.5,357.5 238.8,357.4 		"/>
		<path class="st0" d="M527.1,253.7c-5.5-3.3-11.4-5-18-5H407.2v-31.1h-37.9v33.1c0,6.8,1.6,13,4.9,18.5c3.3,5.5,7.7,10,13.2,13.3
			c5.5,3.3,11.6,5,18.1,5h101.4v31.3H328.4l-20.8,38.7h201.6c6.5,0,12.5-1.7,18-5c5.5-3.3,9.9-7.8,13.2-13.4c3.3-5.6,5-11.8,5-18.4
			v-35.3c0-6.8-1.7-13-5-18.5C536.9,261.5,532.5,257,527.1,253.7z"/>
		<linearGradient id="SVGID_1_" gradientUnits="userSpaceOnUse" x1="349.6375" y1="242.9409" x2="308.0465" y2="188.8725">
			<stop  offset="0" style="stop-color:#1F1F42"/>
			<stop  offset="1" style="stop-color:#104B70"/>
		</linearGradient>
		<path class="st1" d="M475.4,198.1c0-7.2,2.2-13.9,5.9-19.4h-57.6v0h-76v0.3l-74.9,129.6l-74.5-129c2.8-5,4.5-10.8,4.5-16.9
			c0-19.1-15.5-34.6-34.6-34.6c-19.1,0-34.6,15.5-34.6,34.6c0,17.6,13.1,32.1,30.1,34.3l93,160.5h32l81-139.8h30.8v-0.2h23.2h50.7
			h6.9C477.6,212,475.4,205.3,475.4,198.1z M168.2,178.8c-8.9,0-16.1-7.2-16.1-16.1c0-8.9,7.2-16.1,16.1-16.1
			c8.9,0,16.1,7.2,16.1,16.1C184.3,171.6,177.1,178.8,168.2,178.8z"/>
		<circle class="st2" cx="510.7" cy="198.1" r="16.1"/>
		<linearGradient id="SVGID_2_" gradientUnits="userSpaceOnUse" x1="280.4836" y1="398.051" x2="411.4955" y2="202.573">
			<stop  offset="0" style="stop-color:#104B70"/>
			<stop  offset="0.8545" style="stop-color:#4682C3"/>
		</linearGradient>
		<path class="st3" d="M347.6,178.7l-96.9,168.5l6,10.3h32l81-139.8l111.7-0.2c-10.2-17.6-4.8-30.4,0-38.9
			C470.1,178.7,347.6,178.7,347.6,178.7z"/>
	</g>
	<g>
		<path class="st4" d="M68.5,379.8v26.1h13.7v4.3H63.4v-30.5H68.5z"/>
		<path class="st4" d="M100.2,410.5c-2.1,0-4-0.5-5.6-1.4c-1.7-0.9-2.9-2.2-3.9-3.9c-0.9-1.7-1.4-3.6-1.4-5.9c0-2.3,0.5-4.3,1.4-6
			c1-1.7,2.3-3,4-3.9c1.7-0.9,3.6-1.4,5.6-1.4c2.1,0,4,0.5,5.6,1.4c1.7,0.9,3,2.2,4,3.9c1,1.7,1.5,3.6,1.5,5.9c0,2.3-0.5,4.3-1.5,6
			c-1,1.7-2.3,3-4,3.9C104.2,410.1,102.3,410.5,100.2,410.5z M100.2,406.1c1,0,2-0.2,2.9-0.7c0.9-0.5,1.7-1.2,2.2-2.2
			c0.6-1,0.9-2.3,0.9-3.8c0-1.5-0.3-2.8-0.8-3.8c-0.6-1-1.3-1.7-2.2-2.2c-0.9-0.5-1.9-0.7-2.9-0.7c-1,0-2,0.2-2.8,0.7
			c-0.9,0.5-1.5,1.2-2.1,2.2c-0.5,1-0.8,2.3-0.8,3.8c0,1.5,0.3,2.8,0.8,3.8c0.5,1,1.2,1.7,2,2.2C98.3,405.9,99.2,406.1,100.2,406.1z
			"/>
		<path class="st4" d="M129.6,410.2h-4.8l-6.7-21.8h5l4.1,15.9l4.2-15.9h4.8l4,15.9l4-15.9h4.9l-6.7,21.8h-4.9l-4-14.7L129.6,410.2z
			"/>
		<path class="st4" d="M195.3,379.8h5.5l-11.4,30.5h-6L172,379.8h5.5l8.9,25.2L195.3,379.8z"/>
		<path class="st4" d="M215.3,410.5c-2.1,0-4-0.5-5.6-1.4c-1.7-0.9-2.9-2.2-3.9-3.9c-0.9-1.7-1.4-3.6-1.4-5.9c0-2.3,0.5-4.3,1.4-6
			c1-1.7,2.3-3,4-3.9c1.7-0.9,3.6-1.4,5.6-1.4c2.1,0,4,0.5,5.6,1.4c1.7,0.9,3,2.2,4,3.9c1,1.7,1.5,3.6,1.5,5.9c0,2.3-0.5,4.3-1.5,6
			c-1,1.7-2.3,3-4,3.9C219.2,410.1,217.4,410.5,215.3,410.5z M215.2,406.1c1,0,2-0.2,2.9-0.7c0.9-0.5,1.7-1.2,2.2-2.2
			c0.6-1,0.9-2.3,0.9-3.8c0-1.5-0.3-2.8-0.8-3.8c-0.6-1-1.3-1.7-2.2-2.2c-0.9-0.5-1.9-0.7-2.9-0.7c-1,0-2,0.2-2.8,0.7
			c-0.9,0.5-1.5,1.2-2.1,2.2c-0.5,1-0.8,2.3-0.8,3.8c0,1.5,0.3,2.8,0.8,3.8c0.5,1,1.2,1.7,2,2.2
			C213.3,405.9,214.2,406.1,215.2,406.1z"/>
		<path class="st4" d="M235.4,378.9h4.9v31.3h-4.9V378.9z"/>
		<path class="st4" d="M251.8,388.5v-6.1h5v6.1h5.1v4.3h-5.1v9.7c0,1.3,0.2,2.2,0.7,2.7c0.5,0.5,1.1,0.8,1.9,0.8
			c0.8,0,1.6,0,2.4-0.1v4.2c-1.2,0.3-2.5,0.3-3.7,0.2c-1.2-0.1-2.3-0.4-3.2-1c-1-0.6-1.7-1.4-2.3-2.5c-0.6-1.1-0.9-2.6-0.9-4.4v-9.7
			h-3v-4.3H251.8z"/>
		<path class="st4" d="M283.5,410.2l-0.4-2.7c-0.7,0.9-1.5,1.6-2.5,2.1c-1,0.5-2.2,0.7-3.8,0.7c-1.5,0-2.8-0.3-3.9-0.8
			c-1.1-0.5-2-1.2-2.5-2.1c-0.6-0.9-0.9-2-0.9-3.2c0-1.8,0.7-3.4,2-4.6c1.3-1.2,3.3-2,5.9-2.3l5.7-0.6v-1.7c0-0.7-0.3-1.3-0.9-1.9
			c-0.6-0.6-1.6-0.8-2.9-0.8c-1.2,0-2.2,0.3-3,0.8c-0.9,0.6-1.4,1.4-1.7,2.5l-4.3-1.6c0.6-1.9,1.6-3.4,3.3-4.5
			c1.6-1.1,3.6-1.6,6-1.6c2.8,0,5,0.7,6.4,2.1c1.4,1.4,2.1,3.2,2.1,5.4v14.5H283.5z M283,400.7l-5.2,0.7c-1.1,0.1-1.9,0.5-2.5,0.9
			c-0.6,0.5-0.8,1.1-0.8,1.8c0,0.7,0.3,1.2,0.8,1.7c0.5,0.5,1.3,0.7,2.2,0.7c1.2,0,2.2-0.2,3-0.7c0.8-0.4,1.4-1.1,1.9-1.9
			c0.4-0.8,0.6-1.8,0.6-3V400.7z"/>
		<path class="st4" d="M313.7,388.5h4.4V407c0,2.5-0.6,4.6-1.8,6.4c-1.2,1.8-3,3.2-5.3,4.1c-2.3,1-5,1.5-8.3,1.5l-0.7-4.2
			c3.7-0.1,6.4-0.8,8.3-2.1c1.9-1.3,2.8-3.2,2.8-5.6v0h0.6c-0.7,1-1.6,1.8-2.9,2.5c-1.3,0.7-2.8,1-4.5,1c-1.9,0-3.6-0.5-5.1-1.4
			c-1.5-0.9-2.6-2.2-3.5-3.9c-0.8-1.7-1.2-3.6-1.2-5.9c0-2.2,0.4-4.2,1.2-5.9c0.8-1.7,2-3,3.5-3.9c1.5-0.9,3.2-1.4,5.1-1.4
			c1.1,0,2.1,0.1,2.9,0.4c0.9,0.3,1.7,0.6,2.3,1.1c0.7,0.4,1.2,1,1.7,1.5L313.7,388.5z M301.9,399.3c0,2,0.5,3.6,1.6,4.9
			c1,1.2,2.4,1.9,4.2,1.9c1,0,1.9-0.3,2.8-0.8c0.8-0.5,1.5-1.3,2-2.3c0.5-1,0.8-2.2,0.8-3.6c0-1.4-0.3-2.7-0.8-3.7
			c-0.5-1-1.2-1.8-2.1-2.3c-0.9-0.5-1.8-0.8-2.8-0.8c-1.7,0-3.1,0.6-4.2,1.8C302.4,395.7,301.9,397.3,301.9,399.3z"/>
		<path class="st4" d="M338,410.5c-2.2,0-4.1-0.5-5.7-1.4c-1.6-1-2.9-2.3-3.8-4c-0.9-1.7-1.4-3.7-1.4-5.9c0-2.1,0.4-4,1.3-5.7
			c0.9-1.7,2.1-3,3.7-3.9c1.6-1,3.4-1.4,5.4-1.4c2.1,0,3.9,0.5,5.4,1.3c1.6,0.9,2.8,2.2,3.7,3.8c0.9,1.6,1.3,3.5,1.3,5.6
			c0,0.3,0,0.7,0,1.1c0,0.4-0.1,0.8-0.1,1.2h-15.5c0.1,1,0.5,1.9,1,2.6c0.5,0.7,1.2,1.3,1.9,1.7c0.8,0.4,1.7,0.6,2.7,0.6
			c1.2,0,2.3-0.2,3.3-0.7c1-0.5,1.6-1.1,2-2l4.3,1.4c-0.9,1.7-2.2,3.1-3.9,4.1C342.1,410,340.1,410.5,338,410.5z M342.7,397.2
			c0-0.9-0.3-1.7-0.7-2.4c-0.5-0.7-1.1-1.3-1.8-1.7c-0.8-0.4-1.6-0.6-2.5-0.6c-0.8,0-1.6,0.2-2.3,0.6c-0.7,0.4-1.3,1-1.8,1.7
			c-0.5,0.7-0.8,1.5-1,2.5H342.7z"/>
		<path class="st4" d="M377.3,401.9c0.2,0.8,0.5,1.5,1,2.2c0.5,0.7,1.2,1.2,2,1.5c0.9,0.4,1.9,0.6,3.1,0.6c1.8,0,3.2-0.4,4.1-1.3
			c0.9-0.9,1.3-1.9,1.3-3c0-1-0.3-1.8-0.8-2.4c-0.6-0.6-1.4-1.2-2.4-1.6c-1-0.4-2.2-0.9-3.5-1.3c-1.2-0.3-2.3-0.7-3.4-1.1
			c-1.1-0.4-2.1-0.9-3-1.5c-0.9-0.6-1.6-1.4-2.1-2.3c-0.5-0.9-0.8-2.1-0.7-3.5c0-1.9,0.4-3.4,1.3-4.7c0.9-1.3,2.1-2.3,3.7-2.9
			c1.6-0.7,3.4-1,5.4-1c1.7,0,3.3,0.2,4.6,0.7c1.4,0.5,2.5,1.2,3.5,2.1s1.7,2,2.1,3.4l-4.7,1.6c-0.2-0.6-0.5-1.2-1-1.7
			c-0.5-0.5-1.2-0.9-1.9-1.2c-0.8-0.3-1.6-0.4-2.5-0.5c-1,0-1.9,0.1-2.6,0.4c-0.8,0.3-1.4,0.8-1.8,1.4c-0.5,0.6-0.7,1.3-0.7,2.1
			c0,0.9,0.3,1.6,0.8,2.1c0.5,0.5,1.2,0.9,2.1,1.3c0.9,0.3,1.8,0.7,2.8,1c1.2,0.3,2.4,0.7,3.6,1.2c1.2,0.5,2.3,1,3.3,1.7
			c1,0.7,1.8,1.5,2.4,2.6c0.6,1,0.9,2.3,0.9,3.9c0,1.7-0.4,3.2-1.2,4.6c-0.8,1.4-1.9,2.5-3.5,3.3c-1.6,0.8-3.5,1.2-5.8,1.2
			c-1.9,0-3.6-0.3-5.2-0.8c-1.6-0.6-2.8-1.4-3.9-2.4c-1-1.1-1.7-2.3-2-3.8L377.3,401.9z"/>
		<path class="st4" d="M413.1,410.5c-2.2,0-4.1-0.5-5.7-1.4c-1.6-1-2.9-2.3-3.8-4c-0.9-1.7-1.4-3.7-1.4-5.9c0-2.1,0.4-4,1.3-5.7
			c0.9-1.7,2.1-3,3.7-3.9c1.6-1,3.4-1.4,5.4-1.4c2.1,0,3.9,0.5,5.4,1.3c1.6,0.9,2.8,2.2,3.7,3.8c0.9,1.6,1.3,3.5,1.3,5.6
			c0,0.3,0,0.7,0,1.1c0,0.4-0.1,0.8-0.1,1.2h-15.5c0.1,1,0.5,1.9,1,2.6c0.5,0.7,1.2,1.3,1.9,1.7c0.8,0.4,1.7,0.6,2.7,0.6
			c1.2,0,2.3-0.2,3.3-0.7c1-0.5,1.6-1.1,2-2l4.3,1.4c-0.9,1.7-2.2,3.1-3.9,4.1C417.1,410,415.2,410.5,413.1,410.5z M417.8,397.2
			c0-0.9-0.3-1.7-0.7-2.4c-0.5-0.7-1.1-1.3-1.8-1.7c-0.8-0.4-1.6-0.6-2.5-0.6c-0.8,0-1.6,0.2-2.3,0.6c-0.7,0.4-1.3,1-1.8,1.7
			c-0.5,0.7-0.8,1.5-1,2.5H417.8z"/>
		<path class="st4" d="M432.1,388.5h4.4l0.4,2.7c0.6-0.7,1.3-1.3,2-1.8c0.8-0.5,1.6-0.8,2.5-1c0.9-0.2,1.8-0.1,2.8,0.1v4.5
			c-0.8-0.3-1.6-0.3-2.4-0.2c-0.9,0.1-1.6,0.4-2.4,1c-0.7,0.5-1.3,1.2-1.8,2.1c-0.5,0.9-0.7,2-0.7,3.4v11h-4.9V388.5z"/>
		<path class="st4" d="M455.9,388.5l5.7,16.5l5.7-16.5h5.2l-8.3,21.8h-5.4l-8.2-21.8H455.9z"/>
		<path class="st4" d="M483.9,385.2c-0.9,0-1.7-0.3-2.3-0.9c-0.6-0.6-0.9-1.3-0.9-2.2c0-0.9,0.3-1.7,0.9-2.3
			c0.6-0.6,1.4-0.9,2.3-0.9c0.9,0,1.6,0.3,2.2,0.9c0.6,0.6,0.9,1.4,0.9,2.3c0,0.8-0.3,1.6-0.9,2.2
			C485.5,384.9,484.8,385.2,483.9,385.2z M481.4,388.5h4.9v21.8h-4.9V388.5z"/>
		<path class="st4" d="M506.5,410.5c-2.1,0-3.9-0.5-5.5-1.4c-1.6-0.9-2.8-2.2-3.7-3.9c-0.9-1.7-1.3-3.6-1.3-5.8
			c0-2.2,0.4-4.2,1.3-5.9c0.9-1.7,2.2-3,3.8-4c1.6-1,3.5-1.4,5.6-1.4c2.2,0,4.2,0.5,6,1.6c1.7,1.1,3,2.5,3.7,4.3l-4.5,1.5
			c-0.4-0.9-1-1.6-1.9-2.2c-0.9-0.5-2-0.8-3.1-0.8c-1.2,0-2.2,0.3-3,0.8c-0.8,0.6-1.5,1.4-1.9,2.4c-0.5,1-0.7,2.2-0.7,3.6
			c0,2.1,0.5,3.7,1.5,4.9c1,1.2,2.4,1.8,4.2,1.8c1.1,0,2.1-0.3,3-0.8c0.9-0.5,1.6-1.2,2.1-2.2l4.4,1.5c-0.8,1.8-2.2,3.2-3.9,4.2
			C510.7,410,508.8,410.5,506.5,410.5z"/>
		<path class="st4" d="M535.2,410.5c-2.2,0-4.1-0.5-5.7-1.4c-1.6-1-2.9-2.3-3.8-4c-0.9-1.7-1.4-3.7-1.4-5.9c0-2.1,0.4-4,1.3-5.7
			c0.9-1.7,2.1-3,3.7-3.9c1.6-1,3.4-1.4,5.4-1.4c2.1,0,3.9,0.5,5.4,1.3c1.6,0.9,2.8,2.2,3.7,3.8c0.9,1.6,1.3,3.5,1.3,5.6
			c0,0.3,0,0.7,0,1.1c0,0.4-0.1,0.8-0.1,1.2h-15.5c0.1,1,0.5,1.9,1,2.6c0.5,0.7,1.2,1.3,1.9,1.7c0.8,0.4,1.7,0.6,2.7,0.6
			c1.2,0,2.3-0.2,3.3-0.7c1-0.5,1.6-1.1,2-2l4.3,1.4c-0.9,1.7-2.2,3.1-3.9,4.1C539.2,410,537.3,410.5,535.2,410.5z M539.9,397.2
			c0-0.9-0.3-1.7-0.7-2.4c-0.5-0.7-1.1-1.3-1.8-1.7c-0.8-0.4-1.6-0.6-2.5-0.6c-0.8,0-1.6,0.2-2.3,0.6c-0.7,0.4-1.3,1-1.8,1.7
			c-0.5,0.7-0.8,1.5-1,2.5H539.9z"/>
	</g>
</g>
</svg>
