<svg id="Capa_1" data-name="Capa 1" xmlns="http://www.w3.org/2000/svg" viewBox="0 0 200 200"><title>iconoTrabajo</title><path d="M155.3,178.75h24.76a15.84,15.84,0,0,0,15.81-15.82V64.51A15.83,15.83,0,0,0,180.06,48.7H147.14V38.8a21.1,21.1,0,0,0-21.07-21.08H72.36A21.11,21.11,0,0,0,51.28,38.8v9.9H18.37A15.82,15.82,0,0,0,2.56,64.51v98.42a15.83,15.83,0,0,0,15.81,15.82H155.3Zm-72-4.4H80.62V53.09h2.65Zm27.24,0H87.92V53.09h22.59Zm7.3,0h-2.65V53.09h2.65ZM67.1,38.8a5.27,5.27,0,0,1,5.26-5.26h53.71a5.27,5.27,0,0,1,5.26,5.26v9.9H67.1Z"/></svg>