<svg id="Capa_1" data-name="Capa 1" xmlns="http://www.w3.org/2000/svg" viewBox="0 0 200 200"><defs><style>.cls-1{fill:#8a2be2;}</style></defs><title>Linkedin</title><path class="cls-1" d="M100.16,2.24a98.23,98.23,0,1,0,98.23,98.22A98.23,98.23,0,0,0,100.16,2.24ZM67.74,154.14c-7-.08-14-.06-21,0-1.12,0-1.46-.28-1.45-1.43q0-37.36,0-74.71c0-1,.25-1.4,1.34-1.39,7.09.05,14.18.06,21.27,0,1.36,0,1.55.52,1.55,1.68q-.06,18.6,0,37.2c0,12.3,0,24.6,0,36.9C69.5,153.74,69.16,154.15,67.74,154.14ZM57.43,65.94a14,14,0,1,1,14-14A14,14,0,0,1,57.43,65.94Zm102.45,86.59c0,1.28-.35,1.61-1.61,1.6q-10.49-.09-21,0c-1.23,0-1.49-.37-1.49-1.53q.06-19.36,0-38.74a34.72,34.72,0,0,0-1.13-9.61c-1.67-5.8-5.82-8.75-11.89-8.43-8.29.44-12.6,4.54-13.65,13a45.54,45.54,0,0,0-.37,6.06c0,12.56,0,25.11,0,37.67,0,1.25-.31,1.62-1.59,1.61q-10.56-.09-21.12,0c-1.13,0-1.46-.3-1.46-1.44q.06-37.29,0-74.58c0-1.23.4-1.52,1.57-1.51q10,.08,20.06,0c1.23,0,1.55.38,1.52,1.55-.07,3,0,5.94,0,8.91,1.61-1.81,2.94-3.65,4.6-5.21a25.21,25.21,0,0,1,18.15-7.16,42.11,42.11,0,0,1,11.41,1.38c8.53,2.47,13.49,8.34,15.85,16.67,1.77,6.24,2.1,12.66,2.11,19.09C159.91,125.4,159.85,139,159.88,152.53Z"/></svg>