<svg id="Capa_1" data-name="Capa 1" xmlns="http://www.w3.org/2000/svg" viewBox="0 0 196 196"><defs><style>.cls-1{fill:#8a2be2;}.cls-2{fill:#fff;fill-rule:evenodd;}</style></defs><title>Sin título-1</title><circle class="cls-1" cx="98" cy="98" r="98"/><g id="WA_Logo" data-name="WA Logo"><path class="cls-2" d="M147.14,54.06a62.18,62.18,0,0,0-97.85,75l-8.82,32.21,33-8.64a62.09,62.09,0,0,0,29.71,7.56h0a62.18,62.18,0,0,0,44-106.12Zm-44,95.62h0a51.56,51.56,0,0,1-26.3-7.2L75,141.36,55.4,146.49l5.22-19.06-1.23-2a51.68,51.68,0,1,1,43.78,24.2ZM131.51,111c-1.56-.78-9.19-4.54-10.62-5.06s-2.46-.77-3.49.78-4,5-4.92,6.09-1.81,1.17-3.37.39a42.67,42.67,0,0,1-12.49-7.71A47.05,47.05,0,0,1,88,94.73c-.9-1.55-.1-2.39.68-3.17s1.56-1.81,2.33-2.72a10.39,10.39,0,0,0,1.56-2.59,2.9,2.9,0,0,0-.13-2.72c-.39-.77-3.5-8.42-4.79-11.53s-2.54-2.62-3.5-2.66-1.94-.06-3-.06a5.71,5.71,0,0,0-4.14,2,17.41,17.41,0,0,0-5.43,13c0,7.64,5.56,15,6.34,16.06s11,16.73,26.53,23.45a87.81,87.81,0,0,0,8.86,3.27,21.18,21.18,0,0,0,9.78.62c3-.45,9.19-3.76,10.49-7.38s1.29-6.74.91-7.39S133.06,111.77,131.51,111Z" transform="translate(-2 -2)"/></g></svg>